<svg id="a271875e-ffc3-4504-bcee-749c1c6e54d5" data-name="Capa 1" xmlns="http://www.w3.org/2000/svg" viewBox="0 0 782.22 436.74"><title>39LorgioFernando</title><circle cx="158.28" cy="95.42" r="20.79" style="fill:#ededed"/><circle cx="164.88" cy="141.65" r="20.79" style="fill:#ededed"/><circle cx="183.06" cy="184.23" r="20.79" style="fill:#ededed"/><circle cx="212.12" cy="221.76" r="20.79" style="fill:#ededed"/><circle cx="248.79" cy="248.84" r="20.79" style="fill:#ededed"/><circle cx="290.37" cy="270.63" r="20.79" style="fill:#ededed"/><circle cx="336.61" cy="282.52" r="20.79" style="fill:#ededed"/><circle cx="336.61" cy="415.95" r="20.79" style="fill:#ededed"/><circle cx="283.1" cy="407.36" r="20.79" style="fill:#ededed"/><circle cx="233.91" cy="391.17" r="20.79" style="fill:#ededed"/><circle cx="186.06" cy="366.78" r="20.79" style="fill:#ededed"/><circle cx="145.09" cy="335.42" r="20.79" style="fill:#ededed"/><circle cx="107.76" cy="296.11" r="20.79" style="fill:#ededed"/><circle cx="76.39" cy="250.84" r="20.79" style="fill:#ededed"/><circle cx="51.73" cy="201.97" r="20.79" style="fill:#ededed"/><circle cx="34.88" cy="148.09" r="20.79" style="fill:#ededed"/><circle cx="23.87" cy="93.21" r="20.79" style="fill:#ededed"/><circle cx="20.79" cy="35.96" r="20.79" style="fill:#ededed"/><circle cx="623.95" cy="95.42" r="20.79" style="fill:#ededed"/><circle cx="617.34" cy="141.65" r="20.79" style="fill:#611717"/><circle cx="599.17" cy="184.23" r="20.79" style="fill:#ededed"/><circle cx="570.1" cy="221.76" r="20.79" style="fill:#ededed"/><circle cx="533.43" cy="248.84" r="20.79" style="fill:#ededed"/><circle cx="491.85" cy="270.63" r="20.79" style="fill:#ededed"/><circle cx="445.61" cy="282.52" r="20.79" style="fill:#ededed"/><circle cx="445.61" cy="415.95" r="20.79" style="fill:#ededed"/><circle cx="499.1389" cy="407.378" r="20.79" transform="translate(-45.1906 752.0545) rotate(-71.5625)" style="fill:#ededed"/><circle cx="548.31" cy="391.17" r="20.79" style="fill:#ededed"/><circle cx="596.17" cy="366.78" r="20.79" style="fill:#ededed"/><circle cx="637.13" cy="335.42" r="20.79" style="fill:#ededed"/><circle cx="674.46" cy="296.11" r="20.79" style="fill:#ededed"/><circle cx="705.83" cy="250.84" r="20.79" style="fill:#ededed"/><circle cx="730.49" cy="201.97" r="20.79" style="fill:#ededed"/><circle cx="747.34" cy="148.09" r="20.79" style="fill:#ededed"/><circle cx="758.35" cy="93.21" r="20.79" style="fill:#ededed"/><circle cx="761.43" cy="35.96" r="20.79" style="fill:#ededed"/><circle cx="274.78" cy="21.87" r="21.87" style="fill:#ededed"/><circle cx="321.46" cy="21.87" r="21.87" style="fill:#ededed"/><circle cx="367.21" cy="21.87" r="21.87" style="fill:#ededed"/><circle cx="412.96" cy="21.87" r="21.87" style="fill:#ededed"/><circle cx="459.64" cy="21.87" r="21.87" style="fill:#ededed"/><circle cx="506.2371" cy="21.87" r="21.87" style="fill:#ededed"/></svg>